# xmcd
#
# Track frame offsets:
#	150
#	3216
#	23150
#	42684
#	63005
#	67985
#	86612
#	108459
#	130308
#	153752
#	171777
#	193406
#
# Disc length: 2869 seconds
#
# Revision: 1
# Processed by: cddbd v1.5.2PL0 Copyright (c) Steve Scherf et al.
# Submitted via: audiograbber 1.83.01
#
DISCID=980b330c
DTITLE=Refelction - When Shadows Fall
DYEAR=2008
DGENRE=Heavy Metal
TTITLE0=Entering The Sea...
TTITLE1=Mistress of Sea
TTITLE2=Ghost Ship
TTITLE3=When Shadows Fall
TTITLE4=Whispers Of The Lost...
TTITLE5=Lost
TTITLE6=Desert Land
TTITLE7=Soul Salvation
TTITLE8=Eyes Of The Night
TTITLE9=Serpent's Eye
TTITLE10=Kingdom Of Fire
TTITLE11=Mistress Of Sea-Orchestral Version
EXTD=
EXTT0=
EXTT1=
EXTT2=
EXTT3=
EXTT4=
EXTT5=
EXTT6=
EXTT7=
EXTT8=
EXTT9=
EXTT10=
EXTT11=
PLAYORDER=
